<svg xmlns="http://www.w3.org/2000/svg" width="1024" height="1024" viewBox="0 0 1024 1024">
<rect width="1024" height="1024" rx="224" fill="#0f172a" />
    <rect x="176" y="248" width="672" height="528" rx="72"
          fill="none" stroke="#ffffff" stroke-width="64" />
    <line x1="512" y1="248" x2="512" y2="776" stroke="#ffffff" stroke-width="48" />
    <path d="M 344.0 412.0 C 369.7 411.8, 406.4 417.6, 421.8 434.2 C 437.1 450.9, 436.5 486.5, 436.0 512.0 C 435.5 537.5, 434.3 570.6, 419.0 587.0 C 403.6 603.3, 369.7 609.3, 344.0 610.0 C 318.3 610.7, 279.8 607.5, 264.8 591.2 C 249.8 574.9, 253.5 537.9, 254.0 512.0 C 254.5 486.1, 252.6 452.3, 267.6 435.6 C 282.6 419.0, 318.3 412.2, 344.0 412.0 Z" fill="#fb7185" />
    <path d="M 680.0 470.0 C 691.0 469.9, 706.6 471.8, 713.2 478.8 C 719.9 485.8, 720.2 501.2, 720.0 512.0 C 719.8 522.8, 718.5 537.0, 711.8 543.8 C 705.2 550.7, 691.0 552.6, 680.0 553.0 C 669.0 553.4, 652.6 552.8, 646.1 545.9 C 639.6 539.1, 640.8 523.1, 641.0 512.0 C 641.2 500.9, 641.0 486.5, 647.5 479.5 C 654.0 472.5, 669.0 470.1, 680.0 470.0 Z" fill="#fb7185" />
</svg>
