<svg xmlns="http://www.w3.org/2000/svg" width="1024" height="1024" viewBox="0 0 1024 1024">

  <defs>
    <linearGradient id="bg" x1="0" y1="0" x2="0" y2="1">
      <stop offset="0" stop-color="#1e293b" />
      <stop offset="1" stop-color="#0f172a" />
    </linearGradient>
  </defs>
  <rect width="1024" height="1024" fill="url(#bg)" /><g transform="translate(512 512) scale(1) translate(-512 -512)">
    <rect x="216" y="216" width="592" height="592" rx="88"
          fill="none" stroke="#ffffff" stroke-width="40" />
    <line x1="512" y1="216" x2="512" y2="808"
          stroke="#ffffff" stroke-width="28" stroke-linecap="butt" />
    <path d="M 364.0 428.0 C 385.4 427.8, 416.1 432.9, 429.1 446.9 C 442.1 460.9, 442.5 490.8, 442.0 512.0 C 441.5 533.2, 439.2 560.6, 426.2 574.2 C 413.2 587.9, 385.4 593.3, 364.0 594.0 C 342.6 594.7, 310.2 592.1, 297.5 578.5 C 284.9 564.8, 287.5 533.7, 288.0 512.0 C 288.5 490.3, 287.7 462.4, 300.4 448.4 C 313.0 434.4, 342.6 428.2, 364.0 428.0 Z" fill="#fb7185" />
    <path d="M 660.0 478.0 C 668.8 477.9, 681.5 479.5, 686.9 485.1 C 692.2 490.8, 692.2 503.3, 692.0 512.0 C 691.8 520.7, 690.8 532.0, 685.5 537.5 C 680.1 543.0, 668.8 544.6, 660.0 545.0 C 651.2 545.4, 637.6 545.1, 632.4 539.6 C 627.3 534.1, 628.8 521.0, 629.0 512.0 C 629.2 503.0, 628.7 491.5, 633.8 485.8 C 639.0 480.2, 651.2 478.1, 660.0 478.0 Z" fill="#fb7185" />
  </g>
</svg>
